<?xml version="1.0" encoding="iso-8859-1"?>
<!-- Uploaded to: SVG Repo, www.svgrepo.com, Generator: SVG Repo Mixer Tools -->
<svg height="800px" width="800px" version="1.1" id="Layer_1" xmlns="http://www.w3.org/2000/svg" xmlns:xlink="http://www.w3.org/1999/xlink" 
	 viewBox="0 0 512 512" xml:space="preserve">
<path style="fill:#F4B2B0;" d="M115.742,119.151l25.562-53.649c7.289-15.298,22.726-25.042,39.671-25.042h150.049
	c16.947,0,32.383,9.744,39.671,25.042l25.562,53.649"/>
<path style="fill:#B3404A;" d="M396.269,132.787c-5.094,0-9.98-2.867-12.318-7.771l-25.562-53.649
	c-4.999-10.494-15.74-17.274-27.363-17.274H180.977c-11.623,0-22.365,6.78-27.364,17.274l-25.562,53.649
	c-3.239,6.796-11.379,9.681-18.172,6.443c-6.798-3.238-9.683-11.375-6.445-18.172l25.562-53.649
	c9.497-19.931,29.902-32.811,51.98-32.811h150.049c22.08,0,42.483,12.88,51.98,32.811l25.562,53.649
	c3.238,6.798,0.353,14.934-6.445,18.172C400.231,132.362,398.235,132.787,396.269,132.787z"/>
<circle style="fill:#F4B2B0;" cx="281.223" cy="344.525" r="127.026"/>
<g>
	<path style="fill:#B3404A;" d="M281.226,485.173c-77.558,0-140.655-63.097-140.655-140.655s63.097-140.655,140.655-140.655
		s140.655,63.097,140.655,140.655S358.784,485.173,281.226,485.173z M281.226,231.13c-62.522,0-113.388,50.866-113.388,113.388
		s50.866,113.388,113.388,113.388s113.388-50.866,113.388-113.388S343.749,231.13,281.226,231.13z"/>
	<path style="fill:#B3404A;" d="M281.226,413.019c-37.772,0-68.501-30.729-68.501-68.501c0-37.771,30.729-68.5,68.501-68.5
		c7.53,0,13.634,6.105,13.634,13.634c0,7.529-6.104,13.634-13.634,13.634c-22.736,0-41.234,18.497-41.234,41.233
		c0,22.737,18.497,41.234,41.234,41.234c22.737,0,41.234-18.497,41.234-41.234c0-7.529,6.104-13.634,13.634-13.634
		s13.634,6.105,13.634,13.634C349.727,382.29,318.998,413.019,281.226,413.019z"/>
	<path style="fill:#B3404A;" d="M442.799,450.72h-9.57c-7.53,0-13.634-6.105-13.634-13.634c0-7.529,6.104-13.634,13.634-13.634h9.57
		c23.121,0,41.933-18.812,41.933-41.933V177.843c0-23.121-18.81-41.933-41.933-41.933H69.201
		c-23.123,0.001-41.933,18.812-41.933,41.933V381.52c0,23.121,18.81,41.933,41.933,41.933h53.2c7.53,0,13.634,6.105,13.634,13.634
		s-6.104,13.634-13.634,13.634h-53.2C31.044,450.72,0,419.676,0,381.52V177.843c0-38.157,31.044-69.201,69.201-69.201h373.598
		c38.157,0,69.201,31.044,69.201,69.201V381.52C512,419.676,480.957,450.72,442.799,450.72z"/>
	<path style="fill:#B3404A;" d="M156.698,226.586c-7.53,0-13.634-6.105-13.634-13.634v-9.017c0-5.665-4.61-10.274-10.274-10.274
		h-29.077c-5.665,0-10.274,4.61-10.274,10.274v9.017c0,7.529-6.104,13.634-13.634,13.634s-13.634-6.105-13.634-13.634v-9.017
		c0-20.701,16.842-37.542,37.542-37.542h29.077c20.701,0,37.542,16.842,37.542,37.542v9.017
		C170.332,220.482,164.228,226.586,156.698,226.586z"/>
</g>
</svg>